<svg xmlns="http://www.w3.org/2000/svg" fill="none" viewBox="167.1164 23.759477124183007 27.379 49.15032679738562" style="max-height: 500px" width="27.379" height="49.15032679738562">
<path fill="#D16166" d="M152.363 28.7212L153.787 28.3291V43.8819H152.363V28.7212ZM151.387 25.8744L152.809 25.5108C152.586 25.2495 152.436 24.9619 152.363 24.6459C152.232 24.0304 152.339 23.5433 152.683 23.1797C153.027 22.8161 153.374 22.588 153.73 22.4953L154.872 22.272L155.041 23.194L153.925 23.4173C153.759 23.4364 153.595 23.5385 153.436 23.7239C153.279 23.9116 153.227 24.1516 153.281 24.451C153.319 24.6934 153.429 24.874 153.616 24.9952C153.801 25.1164 154.025 25.1473 154.286 25.0926L155.625 24.7861V25.7912L151.385 26.8534V25.8768L151.387 25.8744ZM110.645 49.7344C109.892 49.2972 109.297 48.7055 108.86 47.9617C108.423 47.218 108.204 46.3981 108.204 45.5047V40.619L109.655 40.2555V45.5047C109.655 46.4718 109.994 47.2916 110.673 47.9617C111.352 48.6318 112.164 48.9669 113.114 48.9669H123.038C124.004 48.9669 124.823 48.6318 125.493 47.9617C126.162 47.2916 126.497 46.4718 126.497 45.5047V27.8299L127.947 27.4663V45.5023C127.947 46.3958 127.729 47.2156 127.292 47.9594C126.855 48.7031 126.259 49.2948 125.507 49.7321C124.754 50.1693 123.93 50.3879 123.038 50.3879H113.114C112.221 50.3879 111.398 50.1693 110.645 49.7321V49.7344ZM35.2506 43.8845H53.7235H54.8132H56.3444L56.3445 43.8846L56.3445 43.8845H56.3729L56.3736 43.8823C57.2295 43.8818 58.0215 43.6679 58.7566 43.2407C59.4902 42.8106 60.0814 42.245 60.5277 41.5369C60.9574 42.245 61.5415 42.813 62.2869 43.2407C63.03 43.6684 63.8396 43.8823 64.7132 43.8823L64.714 43.8803L64.7155 43.8845H84.2781V34.1108H71.4389C70.5653 34.1108 69.7509 34.3294 68.9983 34.7667C68.2458 35.2039 67.6499 35.7956 67.213 36.5394C66.7762 37.2832 66.5578 38.103 66.5578 38.9965C66.5578 39.7783 66.7002 40.4674 66.9899 41.0638C67.2771 41.6603 67.6332 42.126 68.0629 42.4611H64.7155L64.7147 42.4632L64.7132 42.4589C63.7446 42.4589 62.9232 42.1238 62.2442 41.4537C61.5652 40.7836 61.2257 39.9638 61.2257 38.9966V34.6694L59.8321 35.033V38.999C59.8321 39.9662 59.4926 40.786 58.8136 41.4561C58.1346 42.1262 57.3203 42.4613 56.373 42.4613L56.3729 42.4611H54.8132V34.1108H41.974C41.1003 34.1108 40.286 34.3294 39.5334 34.7667C38.7809 35.2039 38.185 35.7956 37.7481 36.5394C37.3113 37.2832 37.0929 38.103 37.0929 38.9965C37.0929 39.7783 37.2353 40.4674 37.525 41.0638C37.8122 41.6603 38.1683 42.126 38.5981 42.4611H35.2517L35.2508 42.4585C34.6169 42.4585 34.0352 42.304 33.5058 41.9975C32.974 41.691 32.5514 41.268 32.2356 40.7286C31.9175 40.1892 31.7608 39.6022 31.7608 38.9701V34.113H18.9217C18.048 34.113 17.2337 34.3316 16.4811 34.7689C15.7285 35.2061 15.1326 35.8025 14.6958 36.5558C14.2589 37.3091 14.0405 38.1051 14.0405 38.9986C14.0405 39.8921 14.2589 40.7119 14.6958 41.4557C15.1326 42.1995 15.7285 42.7912 16.4811 43.2284V43.2308C17.2337 43.668 18.048 43.8866 18.9217 43.8866H26.9248C27.8008 43.8795 28.6033 43.6609 29.3345 43.2308C30.0537 42.8076 30.6306 42.2397 31.063 41.5292L31.0652 41.5389C31.5115 42.247 32.1003 42.8149 32.8363 43.2427V43.2403C33.5719 43.6679 34.3764 43.8817 35.2496 43.8819L35.2506 43.8845ZM53.3887 42.4611V35.5366H41.9717C41.0054 35.5366 40.1863 35.8717 39.5168 36.5418C38.8473 37.2119 38.5126 38.0317 38.5126 38.9988C38.5126 39.966 38.8473 40.7858 39.5168 41.4559C40.1863 42.126 41.0054 42.4611 41.9717 42.4611H53.3887ZM30.3387 38.9986C30.3387 39.9658 30.004 40.7856 29.3345 41.4557C28.6745 42.1163 27.872 42.4514 26.9248 42.4609H18.9217C17.9744 42.4609 17.1601 42.1258 16.4811 41.4557C15.8021 40.7856 15.4626 39.9658 15.4626 38.9986C15.4626 38.0315 15.8021 37.2117 16.4811 36.5416C17.1601 35.8715 17.9744 35.5364 18.9217 35.5364H30.3387V38.9986ZM26.6136 53.6531H14.1163V73.4499H15.7616V64.123H25.3316V62.6996H15.7616V54.9933H26.6136V53.6531ZM38.3605 58.7341H36.8529V58.7365V73.4504H38.4151V63.874C38.6739 62.6264 39.1867 61.664 39.9488 60.9844C40.7108 60.3048 41.6605 59.965 42.7953 59.965C43.2226 59.965 43.5764 59.9911 43.8565 60.0482L43.9396 58.5963C43.6049 58.5036 43.244 58.4561 42.8523 58.4561C41.7911 58.4561 40.8842 58.7222 40.1316 59.2521C39.379 59.782 38.7878 60.5401 38.3605 61.5262V58.7341ZM48.9183 73.1837C48.0541 72.8201 47.3751 72.3187 46.8813 71.6748C46.3899 71.0332 46.143 70.3013 46.143 69.4838H47.6766C47.7146 70.432 48.1087 71.1686 48.8613 71.689C49.6139 72.2118 50.6229 72.4708 51.8883 72.4708C53.0231 72.4708 53.9538 72.2094 54.6779 71.689C55.402 71.1686 55.7652 70.527 55.7652 69.7619C55.7652 68.9967 55.4257 68.3242 54.7467 67.7943C54.0677 67.262 53.0682 66.858 51.7482 66.58C51.6936 66.561 51.6367 66.5515 51.5797 66.5515C49.7943 66.1428 48.5266 65.6176 47.7716 64.9736C47.019 64.3297 46.6415 63.46 46.6415 62.3621C46.6415 61.5993 46.86 60.9245 47.2968 60.3375C47.7336 59.7506 48.3438 59.2896 49.1249 58.9545C49.9059 58.6195 50.7986 58.4531 51.8028 58.4531C52.8997 58.4531 53.8612 58.629 54.6898 58.983C55.5159 59.3371 56.1617 59.8409 56.627 60.492C57.0923 61.1431 57.325 61.9059 57.325 62.7827H55.7082C55.7082 61.8702 55.345 61.1217 54.6209 60.5347C53.8968 59.9478 52.9472 59.6555 51.7743 59.6555C50.6775 59.6555 49.8038 59.9027 49.151 60.3946C48.5005 60.8888 48.1562 61.5257 48.1182 62.3075C48.0992 63.0346 48.3746 63.6168 48.942 64.0517C49.5095 64.4889 50.3119 64.8477 51.3541 65.1257L52.7501 65.4608C54.3502 65.8339 55.5112 66.3543 56.2377 67.0244C56.9641 67.6945 57.325 68.588 57.325 69.7048C57.325 70.5056 57.0971 71.209 56.6413 71.8126C56.1854 72.4185 55.5444 72.8867 54.7159 73.2217C53.8873 73.5568 52.9353 73.7231 51.8574 73.7231C50.7796 73.7231 49.7777 73.5425 48.9136 73.1789L48.9183 73.1837ZM66.0047 72.3593C65.2593 72.3593 64.7346 72.1455 64.4283 71.7177L64.4307 71.7201C64.1244 71.2924 63.9701 70.5938 63.9701 69.6266V59.9908H67.0921V58.7338H63.9701V54.8271H62.3534V58.7338H59.8677V59.9908H62.3534V69.8476C62.37 71.1878 62.6454 72.1716 63.1748 72.7942C63.7042 73.4168 64.5565 73.7281 65.727 73.7281C66.527 73.7281 67.1111 73.6639 67.4838 73.5332L67.4007 72.2477C66.6909 72.3213 66.2279 72.3593 66.0047 72.3593ZM70.9192 58.7335H72.3935L72.4505 61.8322C72.9538 60.7344 73.6399 59.8955 74.5136 59.3181C75.3873 58.7407 76.363 58.4531 77.4432 58.4531C79.879 58.4531 81.3391 59.513 81.8234 61.635C82.2888 60.6488 82.982 59.8718 83.9008 59.3038C84.8219 58.7359 85.8689 58.4531 87.0393 58.4531C88.5825 58.4531 89.7411 58.9046 90.5126 59.8076C91.2842 60.7106 91.6712 62.0556 91.6712 63.8425V73.4475H90.1375V63.9827C90.1375 62.5308 89.8479 61.4686 89.2734 60.8009C88.6965 60.1308 87.7943 59.8052 86.5669 59.8242C85.6742 59.8242 84.8979 60.0286 84.2379 60.4373C83.5779 60.8461 83.0675 61.3451 82.7042 61.932C82.341 62.5189 82.1321 63.0631 82.0751 63.5669V73.4498H80.5129V63.7047C80.4939 62.3645 80.2067 61.3831 79.6488 60.7581C79.0908 60.1355 78.2077 59.8242 76.9993 59.8242C75.7908 59.8242 74.8507 60.2235 74.072 61.0243C73.2909 61.8251 72.7686 62.8017 72.5098 63.9542V73.4475H70.9192V58.7335ZM96.4954 58.7339H98.1122V73.4478H96.4954V58.7339ZM106.509 59.4185C107.421 58.7769 108.434 58.4561 109.55 58.4561C111.131 58.4561 112.297 58.9028 113.052 59.7963C113.805 60.6898 114.201 62.0585 114.237 63.9001V73.448H112.646V63.8716C112.646 62.4744 112.364 61.4526 111.796 60.7991C111.229 60.148 110.322 59.8224 109.075 59.8224C107.941 59.8224 106.965 60.2121 106.146 60.9963C105.404 61.7046 104.884 62.6354 104.586 63.7867V73.4528H103.052L103.05 73.4504V58.7365H104.529L104.565 61.7591C105.04 60.7777 105.686 59.9974 106.509 59.4185ZM128.576 71.29C128.139 72.0122 127.544 72.5891 126.789 73.0153C125.953 73.4906 124.946 73.7282 123.776 73.7282C122.157 73.7282 120.939 73.2625 120.122 72.331V72.3333C119.303 71.4018 118.895 70.026 118.895 68.201V58.7339H120.457V68.2271C120.457 69.5863 120.763 70.6153 121.378 71.3115C121.993 72.0102 122.886 72.3595 124.056 72.3595C125.319 72.3595 126.342 72.0529 127.123 71.4375C127.832 70.8795 128.288 70.0929 128.491 69.0778V58.7339H130.11V73.4478H128.576V71.29ZM137.767 71.7177C138.073 72.1455 138.598 72.3593 139.343 72.3593C139.566 72.3593 140.032 72.3213 140.739 72.2477L140.822 73.5332C140.45 73.6639 139.866 73.7281 139.065 73.7281C137.895 73.7281 137.043 73.4168 136.513 72.7942C135.984 72.1716 135.708 71.1878 135.692 69.8476V59.9908H133.209V58.7338H135.692V54.8271H137.309V58.7338H140.433V59.9908H137.309V69.6266C137.309 70.5938 137.463 71.2924 137.769 71.7201L137.767 71.7177ZM153.989 64.6266V64.85L153.987 64.8429H144.957C145.141 63.3878 145.64 62.2023 146.456 61.2903C147.332 60.3137 148.419 59.8242 149.721 59.8242C150.559 59.8242 151.302 60.038 151.952 60.4658C152.605 60.8935 153.106 61.4757 153.46 62.21C153.811 62.9466 153.989 63.7522 153.989 64.6266ZM144.949 66.0168H155.549V65.0116C155.549 63.7094 155.307 62.5593 154.822 61.5636C154.34 60.5679 153.657 59.8004 152.774 59.261C151.89 58.7216 150.872 58.4507 149.718 58.4507C148.453 58.4507 147.337 58.7857 146.371 59.4558C145.402 60.126 144.654 61.0242 144.125 62.1506C143.593 63.2769 143.329 64.5197 143.329 65.8789V66.4374C143.329 67.8703 143.638 69.1416 144.251 70.2489C144.863 71.3563 145.682 72.2141 146.705 72.8177C147.729 73.4236 148.844 73.7254 150.053 73.7254C151.15 73.7254 152.125 73.5163 152.983 73.0981C153.837 72.6798 154.545 72.0787 155.103 71.2969L154.293 70.4319C153.773 71.1044 153.177 71.5963 152.508 71.9123C151.838 72.2307 151.067 72.3876 150.136 72.3876C149.205 72.3876 148.355 72.1452 147.584 71.6604C146.812 71.1757 146.19 70.496 145.715 69.6216C145.243 68.7471 144.987 67.7514 144.949 66.6346V66.0168ZM98.7055 54.8247H95.8993V56.2481H98.7055V54.8247ZM30.3099 58.7339H31.9266V73.4478H30.3099V58.7339ZM32.5228 54.8247H29.7167V56.2481H32.5228V54.8247ZM57.6503 48.1002H63.4384V46.6768H57.6503V48.1002ZM82.8536 42.4611V35.5366H71.4366C70.4703 35.5366 69.6512 35.8717 68.9817 36.5418C68.3122 37.2119 67.9775 38.0317 67.9775 38.9988C67.9775 39.966 68.3122 40.7858 68.9817 41.4559C69.6512 42.126 70.4703 42.4611 71.4366 42.4611H82.8536ZM101.327 42.4607H86.8707H86.8683V43.8841H102.72V38.9984C102.72 38.1049 102.502 37.2875 102.065 36.5414C101.628 35.7976 101.037 35.2059 100.294 34.7686C99.5507 34.3314 98.7317 34.1128 97.839 34.1128H87.7894V35.5362H97.839C98.8053 35.5362 99.6291 35.8712 100.308 36.5414C100.987 37.2115 101.327 38.0313 101.327 38.9984V42.4607ZM147.425 35.5083V42.4589H135.982C135.367 42.4589 134.794 42.3021 134.265 41.9837C133.733 41.6676 133.311 41.2446 132.995 40.7147C132.679 40.1848 132.522 39.586 132.522 38.9705C132.522 38.3551 132.679 37.7824 132.995 37.2525C133.311 36.7226 133.736 36.2996 134.265 35.9835C134.797 35.6675 135.369 35.5083 135.982 35.5083H147.425ZM147.425 43.8847L141.093 48.1002L141.903 49.2741L148.849 44.638V34.0825H135.982C135.108 34.0825 134.294 34.3011 133.541 34.7384C132.788 35.1756 132.192 35.7721 131.756 36.5253C131.319 37.2786 131.1 38.1032 131.1 38.9967C131.1 39.8165 131.324 40.603 131.77 41.3563C132.216 42.112 132.812 42.7203 133.555 43.1861C134.298 43.6518 135.108 43.8847 135.982 43.8847H147.425ZM72.9111 29.5605H78.6992V30.9839H72.9111V29.5605ZM49.2436 29.5605H43.4555V30.9839H49.2436V29.5605ZM20.4056 29.8667H26.1961V31.2901H20.4056V29.8667Z" clip-rule="evenodd" fill-rule="evenodd"/>
<path fill="#D16166" d="M192.55 58.8791C192.55 65.3562 187.286 70.6275 180.805 70.6275C174.324 70.6275 169.068 65.3586 169.068 58.8791V38.9759C169.068 32.4988 174.332 27.2275 180.805 27.2275C182.26 27.2275 183.646 27.492 184.931 27.9758C185.16 27.5754 185.348 27.125 185.476 26.6318C184.022 26.086 182.448 25.781 180.808 25.781C173.544 25.781 167.625 31.6957 167.625 38.9759V58.8791C167.625 66.157 173.544 72.0741 180.808 72.0741C188.072 72.0741 194 66.157 194 58.8791V56.4913H192.555V58.8791H192.55Z"/>
<path fill="#D16166" d="M183.02 39.6238V58.8812C183.02 60.1013 182.027 61.0926 180.811 61.0926C179.594 61.0926 178.601 60.0989 178.601 58.8812V39.8716H177.154V58.8812C177.154 60.8996 178.794 62.5415 180.811 62.5415C182.827 62.5415 184.468 60.8996 184.468 58.8812V39.6238H183.02Z"/>
<path fill="#D16166" d="M193.272 58.0632C192.872 58.0632 192.548 57.7391 192.548 57.3387V25.3702H186.432C186.032 30.3245 181.525 32.0713 178.601 32.3787V36.0176H184.468V52.3772C184.468 52.7776 184.144 53.1017 183.744 53.1017C183.344 53.1017 183.02 52.7776 183.02 52.3772V37.4665H177.154V31.0061L177.856 30.9846C178.149 30.9751 185.015 30.6796 185.015 24.6505V23.926H193.996V57.3435C193.996 57.7438 193.672 58.0679 193.272 58.0679"/>
</svg>