<svg width="1440" height="1024" viewBox="0 0 1440 1024" fill="none" xmlns="http://www.w3.org/2000/svg">
<g clip-path="url(#clip0_359_1026)">
<path d="M-67.4021 -406.657C168.674 -642.733 552.729 -642.733 789.123 -406.339C1025.21 -170.253 1025.21 213.802 789.133 449.878L63.8262 1175.19C-172.269 1411.29 -556.323 1411.28 -792.409 1175.19C-845.451 1122.14 -886.408 1061.96 -915.562 997.424C-938.523 1003.64 -961.784 1013.25 -984.427 1026.6C-951.236 1099.5 -905.013 1168.05 -845.133 1227.93C-580.193 1492.87 -148.68 1493.18 116.569 1227.93L841.875 502.62C1107.11 237.381 1106.81 -194.151 841.875 -459.081C576.627 -724.329 145.104 -724.629 -120.135 -459.39L-207.146 -372.379L-154.413 -319.646L-67.4021 -406.657Z" fill="#8ABDC2"/>
<path d="M-123.432 -403.191C-108.865 -388.624 -108.856 -364.988 -123.432 -350.42L-1288.45 814.606L-1065.32 1037.74C-870.183 871.808 -642.154 972.543 -524.303 1067.98L-391.697 935.436L-605.712 721.421L-9.52576 125.226C5.05103 110.649 28.6869 110.659 43.2543 125.226C57.8311 139.803 57.8311 163.429 43.2543 178.006L-500.161 721.421L-286.156 935.426L-521.67 1170.88L-548.06 1146.13C-559.087 1135.83 -820.297 896.137 -1040 1115.84L-1066.39 1142.23L-1394 814.615L-176.203 -403.191C-161.626 -417.768 -138 -417.768 -123.432 -403.191Z" fill="#8ABDC2"/>
<path d="M-421.572 642.833L280.221 -58.9599C324.663 -103.402 397.013 -103.402 441.455 -58.9599C485.898 -14.5177 485.898 57.8322 441.455 102.274L-251.297 795.027L-198.527 847.797L494.226 155.045C567.784 81.4866 567.784 -38.1815 494.226 -111.74C420.668 -185.298 300.999 -185.298 227.441 -111.74L-474.352 590.053L-421.572 642.833Z" fill="#FAE87D"/>
<path d="M1302.41 515.398C1066.33 751.475 682.28 751.475 445.885 515.08C209.491 278.685 209.8 -105.06 445.876 -341.136L1171.18 -1066.44C1407.28 -1302.54 1791.33 -1302.53 2027.42 -1066.44C2080.47 -1013.39 2121.42 -953.211 2150.57 -888.674C2173.53 -894.885 2196.79 -904.497 2219.44 -917.846C2186.24 -990.749 2140.02 -1059.3 2080.14 -1119.18C1815.2 -1384.12 1383.69 -1384.43 1118.44 -1119.18L393.134 -393.879C127.895 -128.64 128.204 302.892 393.134 567.822C658.382 833.062 1089.9 833.371 1355.14 568.131L1442.15 481.12L1389.41 428.388L1302.4 515.398H1302.41Z" fill="#E35761"/>
<path d="M1656.58 -534.091L954.78 167.711C910.337 212.153 837.988 212.153 793.545 167.711C749.103 123.268 749.103 50.9186 793.545 6.47632L1486.3 -686.276L1433.53 -739.047L740.775 -46.2942C667.216 27.2642 667.216 146.932 740.775 220.491C814.333 294.049 934.001 294.049 1007.56 220.491L1709.35 -481.302L1656.57 -534.082L1656.58 -534.091Z" fill="#362E57"/>
<path d="M1358.43 511.932C1343.87 497.365 1343.86 473.729 1358.43 459.161L2523.45 -705.855L2300.32 -928.985C2105.18 -763.057 1877.15 -863.792 1759.3 -959.225L1626.7 -826.685L1840.71 -612.671L1244.54 -16.4851C1229.96 -1.90833 1206.32 -1.90833 1191.76 -16.4851C1177.18 -31.0618 1177.18 -54.6882 1191.76 -69.2649L1735.16 -612.671L1521.16 -826.676L1756.67 -1062.13L1783.06 -1037.38C1794.09 -1027.08 2055.3 -787.386 2275 -1007.09L2301.39 -1033.48L2629 -705.865L1411.21 511.932C1396.64 526.509 1373.01 526.509 1358.44 511.932" fill="#E35761"/>
</g>
<defs>
<clipPath id="clip0_359_1026">
<rect width="1440" height="1024" fill="white"/>
</clipPath>
</defs>
</svg>
